solid sliver
facet normal 0 0 -1
  outer loop
    vertex -10 -10 -10
    vertex 10 10 -10
    vertex 10 -10 -10
  endloop
endfacet
facet normal 0 0 -1
  outer loop
    vertex -10 -10 -10
    vertex -10 10 -10
    vertex 10 10 -10
  endloop
endfacet
facet normal 0 0 1
  outer loop
    vertex -10 -10 10
    vertex 10 -10 10
    vertex 10 10 10
  endloop
endfacet
facet normal 0 0 1
  outer loop
    vertex -10 -10 10
    vertex 10 10 10
    vertex -10 10 10
  endloop
endfacet
facet normal 0 -1 0
  outer loop
    vertex -10 -10 -10
    vertex 10 -10 -10
    vertex 10 -10 10
  endloop
endfacet
facet normal 0 -1 0
  outer loop
    vertex -10 -10 -10
    vertex 10 -10 10
    vertex -10 -10 10
  endloop
endfacet
facet normal 0 1 0
  outer loop
    vertex -10 10 -10
    vertex -10 10 10
    vertex 10 10 10
  endloop
endfacet
facet normal 0 1 0
  outer loop
    vertex -10 10 -10
    vertex 10 10 10
    vertex 10 10 -10
  endloop
endfacet
facet normal -1 0 0
  outer loop
    vertex -10 -10 -10
    vertex -10 -10 10
    vertex -10 10 10
  endloop
endfacet
facet normal -1 0 0
  outer loop
    vertex -10 -10 -10
    vertex -10 10 10
    vertex -10 10 -10
  endloop
endfacet
facet normal 1 0 0
  outer loop
    vertex 10 -10 -10
    vertex 10 10 -10
    vertex 10 10 10
  endloop
endfacet
facet normal 1 0 0
  outer loop
    vertex 10 -10 -10
    vertex 10 10 10
    vertex 10 -10 10
  endloop
endfacet
facet normal 0 0 -1
  outer loop
    vertex 18 -0.15 -10
    vertex 18.3 0.15 -10
    vertex 18.3 -0.15 -10
  endloop
endfacet
facet normal 0 0 -1
  outer loop
    vertex 18 -0.15 -10
    vertex 18 0.15 -10
    vertex 18.3 0.15 -10
  endloop
endfacet
facet normal 0 0 1
  outer loop
    vertex 18 -0.15 -9.7
    vertex 18.3 -0.15 -9.7
    vertex 18.3 0.15 -9.7
  endloop
endfacet
facet normal 0 0 1
  outer loop
    vertex 18 -0.15 -9.7
    vertex 18.3 0.15 -9.7
    vertex 18 0.15 -9.7
  endloop
endfacet
facet normal 0 -1 0
  outer loop
    vertex 18 -0.15 -10
    vertex 18.3 -0.15 -10
    vertex 18.3 -0.15 -9.7
  endloop
endfacet
facet normal 0 -1 0
  outer loop
    vertex 18 -0.15 -10
    vertex 18.3 -0.15 -9.7
    vertex 18 -0.15 -9.7
  endloop
endfacet
facet normal 0 1 0
  outer loop
    vertex 18 0.15 -10
    vertex 18 0.15 -9.7
    vertex 18.3 0.15 -9.7
  endloop
endfacet
facet normal 0 1 0
  outer loop
    vertex 18 0.15 -10
    vertex 18.3 0.15 -9.7
    vertex 18.3 0.15 -10
  endloop
endfacet
facet normal -1 0 0
  outer loop
    vertex 18 -0.15 -10
    vertex 18 -0.15 -9.7
    vertex 18 0.15 -9.7
  endloop
endfacet
facet normal -1 0 0
  outer loop
    vertex 18 -0.15 -10
    vertex 18 0.15 -9.7
    vertex 18 0.15 -10
  endloop
endfacet
facet normal 1 0 0
  outer loop
    vertex 18.3 -0.15 -10
    vertex 18.3 0.15 -10
    vertex 18.3 0.15 -9.7
  endloop
endfacet
facet normal 1 0 0
  outer loop
    vertex 18.3 -0.15 -10
    vertex 18.3 0.15 -9.7
    vertex 18.3 -0.15 -9.7
  endloop
endfacet
endsolid sliver
